<svg width="2255" height="761" viewBox="0 0 2255 761" fill="none" xmlns="http://www.w3.org/2000/svg">
<path d="M1 760L24 705L53 670.5L65.5 695.5L86 712L103 700L119 715L138.5 695.5L162 730.5L185 685.5L206.5 620L218.5 630L228.5 613L248 642.5L258 623L282 652L307.5 606.5L322 623L347 579L357.5 598L374 627L384.5 599.5L391.5 615.5L401 593L410.5 609L430.5 553L446.5 531L457.5 577L466 606.5L479 582.5L489.5 568.5L506.5 561.5L519 568.5L536 559L553.5 577L569 613L583 579L599.5 561.5L609.5 584.5L616.5 618.5L627 599.5L639 640.5L649.5 663.5L661.5 646L670.5 657L685.5 625.5L700.5 615L708.5 596.5L722 582.5L731 610.5L743 632.5L752.5 615L764.5 609L779.5 579L799.5 547L816.5 534.5L827 550.5L844.5 519.5L853 539L869.5 515L880 493L886 512.5L896.5 493L908 525L919.5 509L935 468L940.5 493L956 473L971 463.5L984 431.5L996.5 483.5L1011.5 512.5L1032.5 534.5L1044.5 509L1056.5 493L1070.5 480.5L1081.5 495.5L1099 473L1107.5 480.5L1120 447L1129 457.5L1137.5 477L1153.5 437L1159.5 453.5L1173 420L1187.5 405L1195.5 389L1203 401.5L1208.5 385.5L1218.5 374L1233 395.5L1239.5 383L1258 367.5L1268.5 397L1276.5 381L1294 362.5L1300.5 377.5L1323 342.5L1329 359.5L1341 383L1354 365.5L1369.5 350.5L1382.5 327L1391.5 316L1402.5 322L1415 307.5L1420.5 319L1432 300.5L1443.5 311.5L1460 300.5L1477 269L1489 253.5L1498.5 288L1509.5 269L1520.5 223.5L1531.5 251L1539.5 231L1558 209.5L1569.5 246.5L1578 229L1596.5 209.5L1607.5 185.5L1619.5 165L1627 179.5L1642 157L1656 140L1662.5 114L1669 133.5L1680 102.5L1685 120.5L1701 140L1721.5 151.5L1733 170.5L1741 157L1754 147.5L1764.5 131.5L1770.5 116L1784 100L1790 116L1800.5 102.5L1809.5 109.5L1818 97L1829.5 89L1834.5 73.5L1842.5 64L1852 77.5L1860 100L1868.5 114L1874.5 131.5L1878.5 147.5L1892 136L1902 120.5L1913 109.5L1922 100L1929 84.5L1938.5 77.5L1948 66C1950.5 62.6667 1955.8 55.8 1957 55C1958.2 54.2 1967.83 47.3333 1972.5 44L1981 57.5L1991.5 44L2001 30L2011 44L2024.5 68.5L2035 57.5L2051 44L2066 37.5L2080 47.5L2097 30L2109.5 23L2116 37.5L2127.5 57.5L2139 66L2150 55L2167 44L2178 37.5L2193.5 25.5L2205 33.5L2220.5 21L2234.5 10.5L2254.5 1" stroke="#8760D0" stroke-opacity="0.6" stroke-width="2"/>
</svg>
