<svg width="1378" height="756" viewBox="0 0 1378 756" fill="none" xmlns="http://www.w3.org/2000/svg">
<path d="M2 652L74 574L90 601L143 546L164 574L201 539L228 504L237 470L270 539L294 511L317 554L344 518L360 470L390 434L416 470L442 497L460 539L488 497L497 511L510 497L534 511L548 497L574 504L612 455L633 443L666 568L686 539L705 596L720 586L725 596L747 586L768 546L790 568L818 511L840 389L852 267L870 295L887 251L942 172L955 186L992 124L1011 55L1051 6L1059 754H1378" stroke="#8760D0" stroke-width="4"/>
</svg>
